<svg width="173" height="68" viewBox="0 0 173 68" fill="none" xmlns="http://www.w3.org/2000/svg">
<path d="M43.4887 0C31.7816 0 21.8429 9.20099 20.5901 21.0401C9.00417 22.3204 0 32.4805 0 44.4393C0.00435216 50.6866 2.43494 56.6768 6.75798 61.0943C11.081 65.5118 16.9431 67.9956 23.0568 68C34.7638 68 44.7415 58.799 45.9554 46.9599C57.5413 45.6796 66.5454 35.5195 66.5454 23.5607C66.5411 17.3134 64.1105 11.3232 59.7875 6.90569C55.4644 2.48816 49.6024 0.00444729 43.4887 0ZM61.152 26.201C60.574 30.0644 58.803 33.6379 56.0973 36.4001C53.3915 39.1623 49.8928 40.9687 46.1115 41.5556V26.201H61.152ZM5.40168 41.799C5.97072 37.9289 7.73684 34.3463 10.4417 31.5756C13.1465 28.8049 16.648 26.9914 20.434 26.4004V41.7654H5.40168V41.799ZM40.7098 47.1194C40.0805 51.4441 37.9517 55.394 34.7113 58.2493C31.4709 61.1045 27.3345 62.6753 23.0557 62.6753C18.777 62.6753 14.6406 61.1045 11.4002 58.2493C8.15975 55.394 6.03098 51.4441 5.40168 47.1194H40.7098ZM40.9049 26.201V41.7654H25.6405V26.201H40.9049ZM61.1438 20.8806H25.8357C26.465 16.5559 28.5937 12.606 31.8341 9.75075C35.0745 6.89546 39.2109 5.32473 43.4897 5.32473C47.7685 5.32473 51.9049 6.89546 55.1453 9.75075C58.3857 12.606 60.5145 16.5559 61.1438 20.8806Z" fill="url(#paint0_linear_23289_41864)"/>
<path d="M97.6899 48.875H92.426V39.1797H82.7757V48.875H77.5281V25.0684H82.7757V34.5645H92.426V25.0684H97.6899V48.875Z" fill="url(#paint1_linear_23289_41864)"/>
<path d="M122.579 48.875H116.552L112.929 42.749C112.658 42.2842 112.398 41.8691 112.149 41.5039C111.9 41.1387 111.646 40.8288 111.386 40.5742C111.137 40.3086 110.871 40.1094 110.59 39.9766C110.319 39.8327 110.021 39.7607 109.696 39.7607H108.283V48.875H103.035V25.0684H111.353C117.007 25.0684 119.834 27.2266 119.834 31.543C119.834 32.373 119.709 33.1423 119.46 33.8506C119.211 34.5479 118.859 35.1787 118.404 35.7432C117.949 36.3076 117.397 36.7946 116.747 37.2041C116.108 37.6136 115.393 37.9346 114.602 38.167V38.2334C114.949 38.3441 115.285 38.5267 115.61 38.7812C115.935 39.0247 116.249 39.3125 116.552 39.6445C116.855 39.9766 117.142 40.3363 117.413 40.7236C117.695 41.0999 117.949 41.4707 118.177 41.8359L122.579 48.875ZM108.283 29.0859V35.71H110.557C111.684 35.71 112.588 35.3779 113.27 34.7139C113.963 34.0387 114.31 33.2031 114.31 32.207C114.31 30.1263 113.092 29.0859 110.655 29.0859H108.283Z" fill="url(#paint2_linear_23289_41864)"/>
<path d="M138.371 41.8691H127.518C127.692 44.3372 129.213 45.5713 132.084 45.5713C133.914 45.5713 135.522 45.1286 136.909 44.2432V48.0283C135.371 48.8695 133.373 49.29 130.914 49.29C128.228 49.29 126.143 48.5319 124.659 47.0156C123.175 45.4883 122.433 43.3633 122.433 40.6406C122.433 37.8184 123.235 35.5827 124.838 33.9336C126.441 32.2845 128.412 31.46 130.751 31.46C133.178 31.46 135.051 32.196 136.373 33.668C137.705 35.14 138.371 37.1377 138.371 39.6611V41.8691ZM133.611 38.6484C133.611 36.2135 132.647 34.9961 130.719 34.9961C129.896 34.9961 129.181 35.3447 128.574 36.042C127.979 36.7393 127.616 37.6081 127.486 38.6484H133.611Z" fill="url(#paint3_linear_23289_41864)"/>
<path d="M154.601 48.875H139.671V46.7002L148.021 35.7432H140.499V31.875H154.536V34.4648L146.624 45.0068H154.601V48.875Z" fill="url(#paint4_linear_23289_41864)"/>
<path d="M172.326 41.8691H161.473C161.647 44.3372 163.169 45.5713 166.039 45.5713C167.869 45.5713 169.478 45.1286 170.864 44.2432V48.0283C169.326 48.8695 167.328 49.29 164.869 49.29C162.183 49.29 160.098 48.5319 158.614 47.0156C157.13 45.4883 156.388 43.3633 156.388 40.6406C156.388 37.8184 157.19 35.5827 158.793 33.9336C160.396 32.2845 162.367 31.46 164.706 31.46C167.133 31.46 169.006 32.196 170.328 33.668C171.66 35.14 172.326 37.1377 172.326 39.6611V41.8691ZM167.566 38.6484C167.566 36.2135 166.602 34.9961 164.674 34.9961C163.851 34.9961 163.136 35.3447 162.529 36.042C161.934 36.7393 161.571 37.6081 161.441 38.6484H167.566Z" fill="url(#paint5_linear_23289_41864)"/>
<defs>
<linearGradient id="paint0_linear_23289_41864" x1="-45.5352" y1="-9.59379e-08" x2="227.75" y2="76.3429" gradientUnits="userSpaceOnUse">
<stop offset="0.0806342" stop-color="white"/>
<stop offset="1" stop-color="white" stop-opacity="0"/>
</linearGradient>
<linearGradient id="paint1_linear_23289_41864" x1="-45.5352" y1="-9.59379e-08" x2="227.75" y2="76.3429" gradientUnits="userSpaceOnUse">
<stop offset="0.0806342" stop-color="white"/>
<stop offset="1" stop-color="white" stop-opacity="0"/>
</linearGradient>
<linearGradient id="paint2_linear_23289_41864" x1="-45.5352" y1="-9.59379e-08" x2="227.75" y2="76.3429" gradientUnits="userSpaceOnUse">
<stop offset="0.0806342" stop-color="white"/>
<stop offset="1" stop-color="white" stop-opacity="0"/>
</linearGradient>
<linearGradient id="paint3_linear_23289_41864" x1="-45.5352" y1="-9.59379e-08" x2="227.75" y2="76.3429" gradientUnits="userSpaceOnUse">
<stop offset="0.0806342" stop-color="white"/>
<stop offset="1" stop-color="white" stop-opacity="0"/>
</linearGradient>
<linearGradient id="paint4_linear_23289_41864" x1="-45.5352" y1="-9.59379e-08" x2="227.75" y2="76.3429" gradientUnits="userSpaceOnUse">
<stop offset="0.0806342" stop-color="white"/>
<stop offset="1" stop-color="white" stop-opacity="0"/>
</linearGradient>
<linearGradient id="paint5_linear_23289_41864" x1="-45.5352" y1="-9.59379e-08" x2="227.75" y2="76.3429" gradientUnits="userSpaceOnUse">
<stop offset="0.0806342" stop-color="white"/>
<stop offset="1" stop-color="white" stop-opacity="0"/>
</linearGradient>
</defs>
</svg>
