<svg width="65" height="18" viewBox="0 0 65 18" fill="none" xmlns="http://www.w3.org/2000/svg">
<path d="M14.1943 17.0625H10.6275V10.5039H4.08847V17.0625H0.532715V0.958008H4.08847V7.38184H10.6275V0.958008H14.1943V17.0625Z" fill="#00AB55"/>
<path d="M31.0594 17.0625H26.9752L24.5203 12.9185C24.3368 12.604 24.1607 12.3232 23.9919 12.0762C23.8231 11.8291 23.6506 11.6195 23.4745 11.4473C23.3057 11.2676 23.1259 11.1328 22.9351 11.043C22.7516 10.9456 22.5498 10.897 22.3296 10.897H21.3718V17.0625H17.8161V0.958008H23.4525C27.2834 0.958008 29.1989 2.41797 29.1989 5.33789C29.1989 5.89941 29.1145 6.41976 28.9457 6.89893C28.7769 7.37061 28.5384 7.79736 28.2302 8.1792C27.9219 8.56104 27.5476 8.89046 27.1073 9.16748C26.6743 9.4445 26.1899 9.66162 25.6542 9.81885V9.86377C25.889 9.93864 26.1165 10.0622 26.3367 10.2344C26.5569 10.3991 26.7697 10.5938 26.9752 10.8184C27.1807 11.043 27.3752 11.2863 27.5586 11.5483C27.7495 11.8029 27.9219 12.0537 28.076 12.3008L31.0594 17.0625ZM21.3718 3.67578V8.15674H22.913C23.6763 8.15674 24.2891 7.93213 24.7515 7.48291C25.2212 7.0262 25.456 6.46094 25.456 5.78711C25.456 4.37956 24.6304 3.67578 22.9791 3.67578H21.3718Z" fill="#00AB55"/>
<path d="M41.7596 12.3232H34.4059C34.5234 13.9928 35.5545 14.8276 37.4993 14.8276C38.7396 14.8276 39.8295 14.5282 40.7689 13.9292V16.4897C39.7267 17.0588 38.3727 17.3433 36.7067 17.3433C34.8866 17.3433 33.4739 16.8304 32.4684 15.8047C31.463 14.7715 30.9603 13.334 30.9603 11.4922C30.9603 9.58301 31.5034 8.07064 32.5895 6.95508C33.6757 5.83952 35.0114 5.28174 36.5966 5.28174C38.2406 5.28174 39.5102 5.77962 40.4056 6.77539C41.3083 7.77116 41.7596 9.12256 41.7596 10.8296V12.3232ZM38.5341 10.1445C38.5341 8.4974 37.881 7.67383 36.5746 7.67383C36.0169 7.67383 35.5325 7.90967 35.1215 8.38135C34.7178 8.85303 34.472 9.44075 34.3839 10.1445H38.5341Z" fill="#00AB55"/>
<path d="M52.7571 17.0625H42.6403V15.5913L48.2987 8.1792H43.2018V5.5625H52.7131V7.31445L47.352 14.4458H52.7571V17.0625Z" fill="#00AB55"/>
<path d="M64.7674 12.3232H57.4138C57.5312 13.9928 58.5623 14.8276 60.5071 14.8276C61.7474 14.8276 62.8373 14.5282 63.7767 13.9292V16.4897C62.7345 17.0588 61.3805 17.3433 59.7145 17.3433C57.8945 17.3433 56.4817 16.8304 55.4763 15.8047C54.4708 14.7715 53.9681 13.334 53.9681 11.4922C53.9681 9.58301 54.5112 8.07064 55.5973 6.95508C56.6835 5.83952 58.0192 5.28174 59.6045 5.28174C61.2484 5.28174 62.518 5.77962 63.4134 6.77539C64.3161 7.77116 64.7674 9.12256 64.7674 10.8296V12.3232ZM61.542 10.1445C61.542 8.4974 60.8888 7.67383 59.5824 7.67383C59.0247 7.67383 58.5403 7.90967 58.1293 8.38135C57.7257 8.85303 57.4798 9.44075 57.3917 10.1445H61.542Z" fill="#00AB55"/>
</svg>
